<svg id="Layer_1" data-name="Layer 1" xmlns="http://www.w3.org/2000/svg" xmlns:xlink="http://www.w3.org/1999/xlink" viewBox="0 0 724.72 420.83"><defs><style>.cls-1{fill:none;}.cls-2{clip-path:url(#clip-path);}.cls-3,.cls-5{fill:#375484;}.cls-4{fill:#1e3457;}.cls-5{font-size:48.4px;font-family:Poppins-Bold, Poppins;font-weight:700;}</style><clipPath id="clip-path"><rect class="cls-1" x="248.93" y="21.95" width="226.87" height="226.87"/></clipPath></defs><g class="cls-2"><path class="cls-3" d="M420,34.76a72.5,72.5,0,0,0-52.66,22.49c-6.09,6.35-10.11,14.45-13.92,22.18-4.92,9.84-9.63,19.26-17.62,25.72v-20a125.54,125.54,0,0,0,6.14-11.49c3.44-6.83,7-13.92,12.12-20.53a74.45,74.45,0,0,0-20.27-12.81,73.23,73.23,0,0,0-28.16-5.61V22a85,85,0,0,1,33.08,6.67,83.34,83.34,0,0,1,24.08,15.3A85.4,85.4,0,0,1,420,22V34.76Z"/><path class="cls-3" d="M305.61,48.31a59.48,59.48,0,0,1,46,22.07l-9.95,8a46.21,46.21,0,0,0-36.09-17.25Z"/><path class="cls-3" d="M420,58a72.55,72.55,0,0,0-14.4,4.45,73.33,73.33,0,0,0-24,16.72c-6.09,6.35-10.06,14.4-13.92,22.18-1.27,2.49-2.54,5-3.81,7.41H348.9a114.32,114.32,0,0,0,7.31-13.13c4.23-8.52,8.68-17.46,16.14-25.3A85.91,85.91,0,0,1,420,45Z"/><path class="cls-3" d="M420,84.3l-.16,0a73.21,73.21,0,0,0-24,16.67,53.38,53.38,0,0,0-6.09,7.73H374.94a76.92,76.92,0,0,1,11.64-16.52A85.93,85.93,0,0,1,414.85,72.6c1.69-.69,3.38-1.38,5.13-2Z"/><path class="cls-4" d="M354,53.18a79.93,79.93,0,0,0-6.67-5.3L355.46,38a84.86,84.86,0,0,1,7.31,5.93A58.35,58.35,0,0,0,354,53.18Z"/><path class="cls-4" d="M340.38,76.83c.53-1,1.06-2.06,1.54-3.12,1.48-2.91,3-5.93,4.6-8.89-1.48,3.44-6.14,12-6.14,12Z"/><path class="cls-4" d="M340,59.37a58.33,58.33,0,0,1,6.51,5.45c-1.48,3.44-6.14,12-6.14,12a43.78,43.78,0,0,0-6.67-6.24v-.27Z"/><path class="cls-3" d="M463.85,193A72.44,72.44,0,0,0,458,164.37a73.94,73.94,0,0,0-16.67-24c-6.4-6.08-14.45-10.11-22.17-13.92-9.9-4.92-19.27-9.63-25.78-17.62h19.95c3.6,2.22,7.47,4.18,11.49,6.14,6.88,3.44,14,7,20.53,12.12a72.56,72.56,0,0,0,18.47-48.43h12.81a85.38,85.38,0,0,1-22,57.16,87.13,87.13,0,0,1,15.08,23.61,85.72,85.72,0,0,1,6.88,33.6Z"/><path class="cls-3" d="M450.25,78.63a58.82,58.82,0,0,1-5.77,25.46,59.64,59.64,0,0,1-16.24,20.59l-8-10A47,47,0,0,0,433,98.59a46.18,46.18,0,0,0,4.5-20Z"/><path class="cls-3" d="M440.57,193a72.63,72.63,0,0,0-21.12-38.42c-6.4-6.09-14.45-10.06-22.18-13.92-2.54-1.27-5-2.54-7.46-3.81V121.93a125.18,125.18,0,0,0,13.13,7.3c8.57,4.23,17.46,8.68,25.3,16.14a86,86,0,0,1,19.63,28.26A82.33,82.33,0,0,1,453.53,193Z"/><path class="cls-3" d="M414.32,193l-.06-.16a73.18,73.18,0,0,0-16.72-24,56.72,56.72,0,0,0-7.73-6V148a75.8,75.8,0,0,1,16.51,11.65A84.27,84.27,0,0,1,426,187.87c.74,1.69,1.43,3.39,2,5.13Z"/><path class="cls-4" d="M445.38,127.06a72.45,72.45,0,0,0,5.3-6.67l9.89,8.1q-2.77,3.81-5.87,7.3A60.2,60.2,0,0,0,445.38,127.06Z"/><path class="cls-4" d="M421.78,113.4c1,.53,2.06,1.06,3.07,1.54,3,1.48,5.93,3,8.94,4.6-3.44-1.48-12-6.14-12-6.14Z"/><path class="cls-4" d="M439.19,113a53,53,0,0,1-5.4,6.51c-3.44-1.48-12-6.14-12-6.14a46.88,46.88,0,0,0,6.24-6.66h.27Z"/><path class="cls-3" d="M305.61,236.88a72.34,72.34,0,0,0,52.61-22.5c6.08-6.4,10.11-14.44,14-22.17,4.92-9.9,9.58-19.27,17.62-25.78v20c-2.22,3.6-4.18,7.46-6.19,11.48-3.44,6.88-7,14-12.07,20.54a70.92,70.92,0,0,0,20.27,12.8A72,72,0,0,0,420,236.88v12.8A85.42,85.42,0,0,1,386.85,243a87.42,87.42,0,0,1-24.08-15.3,87.49,87.49,0,0,1-23.55,15.08,85.59,85.59,0,0,1-33.61,6.88v-12.8Z"/><path class="cls-3" d="M420,223.28a59.19,59.19,0,0,1-25.51-5.77,59.83,59.83,0,0,1-20.53-16.25l9.95-8A47.16,47.16,0,0,0,400,206a46.61,46.61,0,0,0,20,4.5v12.76Z"/><path class="cls-3" d="M305.61,213.59A72.81,72.81,0,0,0,320,209.14a71.11,71.11,0,0,0,24-16.67c6.09-6.4,10.11-14.45,14-22.17,1.27-2.54,2.49-5,3.76-7.46h14.92A125.83,125.83,0,0,0,369.38,176c-4.28,8.57-8.73,17.47-16.14,25.3A86.36,86.36,0,0,1,325,220.89a83.05,83.05,0,0,1-19.37,5.67Z"/><path class="cls-3" d="M305.61,187.34l.11-.05a72.33,72.33,0,0,0,24-16.73,53,53,0,0,0,6-7.72h14.87A75.89,75.89,0,0,1,339,179.35,84.93,84.93,0,0,1,310.74,199c-1.69.74-3.38,1.43-5.13,2Z"/><path class="cls-4" d="M371.55,218.41a72.35,72.35,0,0,0,6.67,5.29l-8.15,9.9q-3.81-2.79-7.3-5.88A58.81,58.81,0,0,0,371.55,218.41Z"/><path class="cls-4" d="M385.16,194.8c-.53,1-1,2.07-1.54,3.07-1.48,3-3,5.93-4.6,8.95,1.48-3.44,6.14-12,6.14-12Z"/><path class="cls-4" d="M385.53,212.21a62.88,62.88,0,0,1-6.51-5.39c1.48-3.44,6.14-12,6.14-12a49.81,49.81,0,0,0,6.66,6.25v.26Z"/><path class="cls-3" d="M261.74,78.63a72.67,72.67,0,0,0,5.82,28.64,71.6,71.6,0,0,0,16.67,24c6.35,6.09,14.45,10.11,22.17,14,9.85,4.92,19.27,9.58,25.73,17.63h-20c-3.54-2.23-7.46-4.19-11.48-6.2-6.83-3.44-13.92-7-20.54-12.06A72.27,72.27,0,0,0,261.74,193H248.93a85.38,85.38,0,0,1,22-57.21,85.18,85.18,0,0,1-22-57.16Z"/><path class="cls-3" d="M275.28,193a59.36,59.36,0,0,1,22.07-46l8,9.95A46.07,46.07,0,0,0,288.09,193Z"/><path class="cls-3" d="M285,78.63A73.12,73.12,0,0,0,289.42,93a72.16,72.16,0,0,0,16.72,24c6.35,6.09,14.39,10.11,22.17,14,2.49,1.27,5,2.48,7.41,3.75v14.93a114,114,0,0,0-13.12-7.25c-8.52-4.29-17.47-8.74-25.3-16.14A86.1,86.1,0,0,1,272,78.63Z"/><path class="cls-3" d="M311.27,78.63l.06.11a72.69,72.69,0,0,0,16.67,24,53.59,53.59,0,0,0,7.72,6v14.87A77.11,77.11,0,0,1,319.21,112a86.36,86.36,0,0,1-19.63-28.26c-.69-1.7-1.38-3.39-2-5.14Z"/><path class="cls-4" d="M280.15,144.58a80.25,80.25,0,0,0-5.29,6.67L265,143.1a88.82,88.82,0,0,1,5.93-7.31A57.66,57.66,0,0,0,280.15,144.58Z"/><path class="cls-4" d="M303.81,158.18l-3.12-1.54c-2.91-1.48-5.93-3-8.89-4.6,3.44,1.48,12,6.14,12,6.14Z"/><path class="cls-4" d="M286.35,158.55A69.06,69.06,0,0,1,291.8,152c3.44,1.48,12,6.14,12,6.14a46.21,46.21,0,0,0-6.24,6.67h-.27Z"/></g><text class="cls-5" transform="translate(72.92 303.01)">R</text><text class="cls-5" transform="translate(104.47 303.01)">U</text><text class="cls-5" transform="translate(138.59 303.01)">K</text><text class="cls-5" transform="translate(172.33 303.01)">N</text><text class="cls-5" transform="translate(208.72 303.01)"> </text><text class="cls-5" transform="translate(218.98 303.01)">A</text><text class="cls-5" transform="translate(254.65 303.01)">L</text><text class="cls-5" transform="translate(277.74 303.01)"> </text><text class="cls-5" transform="translate(288 303.01)">T</text><text class="cls-5" transform="translate(316.6 303.01)">A</text><text class="cls-5" transform="translate(352.27 303.01)">W</text><text class="cls-5" transform="translate(403.19 303.01)">A</text><text class="cls-5" transform="translate(438.85 303.01)">R</text><text class="cls-5" transform="translate(470.41 303.01)"> </text><text class="cls-5" transform="translate(480.67 303.01)">W</text><text class="cls-5" transform="translate(531.59 303.01)">A</text><text class="cls-5" transform="translate(567.26 303.01)">S</text><text class="cls-5" transform="translate(597.02 303.01)">T</text><text class="cls-5" transform="translate(625.62 303.01)">E</text><text class="cls-5" transform="translate(158.94 369.55)">T</text><text class="cls-5" transform="translate(187.54 369.55)">R</text><text class="cls-5" transform="translate(219.09 369.55)">E</text><text class="cls-5" transform="translate(245.28 369.55)">A</text><text class="cls-5" transform="translate(280.95 369.55)">T</text><text class="cls-5" transform="translate(309.55 369.55)">M</text><text class="cls-5" transform="translate(353.98 369.55)">E</text><text class="cls-5" transform="translate(380.16 369.55)">N</text><text class="cls-5" transform="translate(416.56 369.55)">T</text><text class="cls-5" transform="translate(445.16 369.55)"> </text><text class="cls-5" transform="translate(455.42 369.55)">L</text><text class="cls-5" transform="translate(478.51 369.55)">.</text><text class="cls-5" transform="translate(492.16 369.55)">L</text><text class="cls-5" transform="translate(515.24 369.55)">.</text><text class="cls-5" transform="translate(528.89 369.55)">C</text></svg>